<svg xmlns="http://www.w3.org/2000/svg"  viewBox="0 0 48 48" width="48px" height="48px"><path fill="#ff754c" d="M12.7,36.7l-1.4-1.4l8-8C21.6,25,23.4,24,29,24h2v2h-2c-5.1,0-6.4,0.8-8.3,2.7L12.7,36.7z"/><path fill="#ff754c" d="M20.7,28.6l-1.5-1.4l0.1-0.1c1.9-1.9,2.6-2.6,2.6-8.2v-2h2v2C24,25.2,23,26.3,20.7,28.6z"/><path fill="#ff744c" d="M12,33l3,3l3-5l-1-1L12,33z"/><path fill="#37474f" d="M5,40l7-7l3,3l-7,7L5,40z"/><path fill="#37474f" d="M8,44c-0.3,0-0.5-0.1-0.7-0.3l-3-3c-0.4-0.4-0.4-1,0-1.4s1-0.4,1.4,0l3,3c0.4,0.4,0.4,1,0,1.4 C8.5,43.9,8.2,44,8,44z"/><path fill="#d6d1d0" d="M34 5h1v19h-1V5zM31 6h1v19h-1V6zM28 8h1v16h-1V8zM25 11h1v11h-1V11z"/><path fill="#d6d1d0" d="M26 22h11v1H26V22zM24 19h16v1H24V19zM23 16h20v1H23V16zM23 13h20v1H23V13zM26 10h16v1H26V10zM28 7h12.5v1H28V7z"/><path fill="#d6d1d0" d="M37 6h1v16h-1V6zM40 8h1v11h-1V8z"/><path fill="#ff754c" d="M31.5,26c-2.5,0-4.9-1-6.7-2.8C23,21.4,22,19,22,16.5s1-4.9,2.8-6.7l3-3c3.7-3.7,9.7-3.7,13.4,0 c3.7,3.7,3.7,9.7,0,13.4l-3,3C36.4,25,34,26,31.5,26z M34.5,6c-1.9,0-3.8,0.7-5.3,2.2l-3,3c-2.9,2.9-2.9,7.7,0,10.6 c1.4,1.4,3.3,2.2,5.3,2.2c2,0,3.9-0.8,5.3-2.2l3-3c2.9-2.9,2.9-7.7,0-10.6C38.3,6.7,36.4,6,34.5,6z"/><path fill="#b0bec5" d="M5 10L5 10c.1 0 .1 0 .1 0L5 10zM12 17l0-.1C12 16.9 11.9 16.9 12 17L12 17z"/><path fill="#90a4ae" d="M11.4,7.8L7.2,9.2L5.1,10c0,0,0,0.1,0,0.1L5,10c0,0.1,0,0.3,0,0.4c0,0.8,0.7,1.5,1.5,1.5 c0.1,0,0.3,0,0.4-0.1l3.2,3.2c0,0.1-0.1,0.3-0.1,0.4c0,0.8,0.7,1.5,1.5,1.5c0.2,0,0.4,0,0.5,0l-0.1-0.1c0,0,0.1,0,0.1,0l0.8-2.2 l1.4-4.1L11.4,7.8z"/><path fill="#b0bec5" d="M10,15.1c0,0.1-0.1,0.3-0.1,0.4c0,0.8,0.7,1.5,1.5,1.5c0.2,0,0.4,0,0.5,0l-0.1-0.1c0,0,0.1,0,0.1,0 l0.7-2.2l1.4-4.1L13,9.4L10,15.1z"/><path fill="#90a4ae" d="M10.5,15.6c-0.6,0.6-1.5,0.6-2.1,0c-0.6-0.6-0.6-1.5,0-2.1c0.6-0.6,5.8-5.6,5.8-5.6 S11.1,15,10.5,15.6z"/><path fill="#b0bec5" d="M13.9 7.6c0 0-4.8 5.4-5.4 6-.6.6-1.5.6-2.1 0-.6-.6-.6-1.5 0-2.1C7 10.9 13.9 7.6 13.9 7.6zM16.4 8.4c.8-.8.8-2 0-2.8-.8-.8-2-.8-2.8 0l-.8.8 2.8 2.8L16.4 8.4z"/><path fill="#455a64" d="M11.4,7.8l1.4-1.4l2.8,2.8l-1.4,1.4L11.4,7.8z"/></svg>